# xmcd
#
# Track frame offsets:
#	150
#	16331
#	30413
#	46359
#	62294
#	79355
#	94633
#	110369
#	128520
#	145679
#	160819
#	178324
#	196327
#	242979
#
# Disc length: 3968 seconds
#
# Revision: 0
# Processed by: cddbd v1.5.2PL0 Copyright (c) Steve Scherf et al.
# Submitted via: EasyCDDAExtractor 10.0.3.1
#
DISCID=af0f7e0e
DTITLE=Splash - Lázad a szívem
DYEAR=2000
DGENRE=pop
TTITLE0=Lázada szívem
TTITLE1=Te és én
TTITLE2=Dub I Dub
TTITLE3=Csak én vagyok neked
TTITLE4=Csak az álmom szép
TTITLE5=Maradj még
TTITLE6=Véget ért a nyár
TTITLE7=Várj
TTITLE8=Blue night
TTITLE9=Happy Day
TTITLE10=Hallom a hangod 2000
TTITLE11=Lázad a szívem cultus mix
TTITLE12=Splash megamix
TTITLE13=Splash multimédia
EXTD=
EXTT0=
EXTT1=
EXTT2=
EXTT3=
EXTT4=
EXTT5=
EXTT6=
EXTT7=
EXTT8=
EXTT9=
EXTT10=
EXTT11=
EXTT12=
EXTT13=
PLAYORDER=
